<svg xmlns="http://www.w3.org/2000/svg" viewBox="0 0 96 96"><defs><style>.cls-1{fill:#fff;fill-opacity:0;opacity:0;}.cls-2{fill:#ffd400;}.cls-3{fill:#ffc20e;}.cls-4{fill:#cd992b;}.cls-5{fill:#a65718;}.cls-6{fill:none;}</style></defs><g id="icones"><g id="mundo"><rect class="cls-1" width="96" height="96"/><path class="cls-2" d="M88,48a40,40,0,0,1-.87,8.32v0A40,40,0,0,1,48,88a40.68,40.68,0,0,1-9.42-1.12h0A40,40,0,0,1,8,48a40.41,40.41,0,0,1,.75-7.75A40,40,0,0,1,25,15.29c.46-.32.92-.64,1.4-.94a36.41,36.41,0,0,1,3.54-2,40,40,0,0,1,46.36,7.4l0,.05A39.91,39.91,0,0,1,84,30.62,38.94,38.94,0,0,1,87,38.9h0A40,40,0,0,1,88,48Z"/><path class="cls-3" d="M88,48A40,40,0,0,1,19.72,76.28L76.28,19.72A39.88,39.88,0,0,1,88,48Z"/><path class="cls-4" d="M84,30.62c-.84,1.48-2.25,3.42-4,3.68-1-2.81-2.81-4.75-5.56-5.41,2.87,2.39,2.09,4.94,2,3.89-1-1.16-2.55-2-3.48-3.11-2.63,1.32-4.52,5.21-7.78,4.7-3.92-.62-1.55-4.76,2.51-3.89-1.32-3.54,2.76-5.43,6.76-6.47-.1-.54-.19-1.07-.29-1.61-2-.69-1.33-.11-3.47-1.59,1.49-2.07,3.56-2.08,5.66-1A39.91,39.91,0,0,1,84,30.62Z"/><polygon class="cls-4" points="66.23 23.83 66.15 24.73 64.45 25.94 63.49 25.94 63.49 25.07 64.32 23.76 65.44 23.49 66.23 23.83"/><path class="cls-4" d="M54.51,59.94c-.1,0-2.41,7.17-2.41,7.33-1.23,2-2.69,2-3.88,3.42s-.94,4-3,6c-1,1-4.74,2.45-5.11,3A5.94,5.94,0,0,1,40,82.5c.58.17,1.12.62,1.89.83-.48,1.12.3,3.22.76,4.31a39.14,39.14,0,0,1-4.08-.76h0a25.79,25.79,0,0,1-2.35-6.61C35.39,77,33.89,74.7,33.56,72c-.55-4.62-.7-5.83-3.3-8.91-1.23-1.46-2.83-3-3-4.74-.15-2,2.55-4,2.52-4.62-.16-2.68-4.74-4.62-7.42-6.14-2.27-1.28-4.38-.22-6.47-1.79-1.57-1.19-3.39-5.5-3-3.52a8.5,8.5,0,0,1-4.19-2A40,40,0,0,1,25,15.29a8.8,8.8,0,0,0,5.09,1.36,11.16,11.16,0,0,0-2.92-1c-.46-1.26,1.23-1.11-.77-1.32a36.41,36.41,0,0,1,3.54-2l.49,0c1,0,2.79,1.91,4.69,1.23-1.61,1.05.76,1,.41,1,1.25-1.26,1.56-1.55,4-1.06-1.52,2,8.58-.65,8.73,2.92l1.14-.28c-3.08.88-3.21,3.6-7.19,1.9,1.13-.28-2.65-.29-2.66.21a9.91,9.91,0,0,1-2.11.8c.22.21.91,1.35,1.05,1.24a5.94,5.94,0,0,1,2.44-1.05c1.41-.23,2.69.25,2.39,2.4.81-.46,2.13-.41,3-1.12C50.66,24,50.13,23.61,50.66,24c-2.09,0-5.69,3.58-4.88,1.62-1.43.6-3.71,1.14-3.17,1.3-2.78.78-12.73,7.08-11.49,11.73-1.72-1.36-7.95-1.55-10.61.94-4,3.72,4.26,4.88,3.71,5.93,4.27-.19.89,2.7,2.68,3.73,2.43,1.38,2.47,0,4.48-.18,1.73-.15,5.95.66,7.16-.33,2,2,4.47,2.47,6.07,4,1,1,0,2.51,1.12,3.16.74.43,1.77.46,2.49.94C50.27,58.21,53.8,56.78,54.51,59.94Z"/><path class="cls-4" d="M88,48a40,40,0,0,1-.87,8.32v0a81.34,81.34,0,0,1-9.6,16.52c-1.92-2.49-1.83-2-2.44-5.12-.44-2.27-.08-2.34,0-4.55,0-1.89.58-.71.24-2.48-.27-1.36-1.84-2.46-2.14-3.82-.1-.48.15-1.75,0-2-.45-1-.49-1.28-.45-1.35s-.41-.18-1.3-1c-4.39-3.85-3.92,3.11-9.18.76-3.91-1.74-4.59-6.88-3-9.77-2.49-.64-.27-1.75.76-2.8.81-.82,2.13-1.19,2.9-2,.49-.55-.47-2,.26-2.43,1.85-1.19,2.27.44,4.1-.06,1.57-.43,3.28-1.69,5.41-2.13C71.52,37.64,76,37,77.92,38.66c-.31-.49-.2-1.09-.39-2A12.75,12.75,0,0,1,87,38.9h0A40,40,0,0,1,88,48Z"/><path class="cls-5" d="M88,48a40,40,0,0,1-.87,8.32v0a81.24,81.24,0,0,1-9.6,16.53c-1.92-2.5-1.83-2-2.44-5.13-.44-2.27-.07-2.35,0-4.55,0-1.89.58-.7.24-2.48-.26-1.37-1.85-2.46-2.14-3.82-.1-.48.15-1.75,0-2-.46-1-.49-1.29-.45-1.35a4.55,4.55,0,0,1-1.31-1c-4.38-3.85-3.9,3.11-9.17.76-3.91-1.75-4.58-6.88-3-9.77-2.48-.63-.27-1.75.76-2.8.81-.82,2.13-1.19,2.9-2,.5-.55-.47-2,.26-2.43,1.85-1.19,2.26.44,4.1-.06,1.57-.43,3.28-1.69,5.41-2.13C71.52,37.63,76,37,77.92,38.66c-.31-.48-.2-1.08-.39-2A12.68,12.68,0,0,1,87,38.9h0A40,40,0,0,1,88,48Z"/><path class="cls-5" d="M84,30.62c-.84,1.48-2.25,3.42-4,3.67a7.82,7.82,0,0,0-5.56-5.4c2.87,2.4,2.09,5,2,3.88-1-1.15-2.56-2-3.49-3.1-2.62,1.32-4.52,5.21-7.79,4.7-1.51-.24-2.09-1-2-1.81l2-2a4.78,4.78,0,0,1,2.55-.12,3.17,3.17,0,0,1,0-2.38l2.48-2.49h0A19,19,0,0,1,74.43,24c-.1-.53-.2-1.08-.29-1.61l-.62-.19,2.56-2.56.25.12A39.91,39.91,0,0,1,84,30.62Z"/><path class="cls-5" d="M54.51,59.94c-.1,0-2.42,7.18-2.42,7.33-1.21,2-2.69,2-3.87,3.42s-.93,4-3,6c-1,1-4.74,2.45-5.11,3A6,6,0,0,1,40,82.5c.57.16,1.12.62,1.88.83-.49,1.12.28,3.21.76,4.31a39.33,39.33,0,0,1-4.09-.76,25.41,25.41,0,0,1-2.35-6.61C35.4,77,33.89,74.7,33.56,72c-.46-3.9-.65-5.37-2.24-7.57L43.7,52a7.25,7.25,0,0,1,.92.71c1,1,0,2.51,1.1,3.16.75.42,1.77.46,2.5,1C50.27,58.21,53.81,56.78,54.51,59.94Z"/><circle class="cls-6" cx="48" cy="48" r="40"/></g></g></svg>